<?xml version="1.0"?>
<!DOCTYPE svg PUBLIC "-//W3C//DTD SVG 1.1//EN" "http://www.w3.org/Graphics/SVG/1.1/DTD/svg11.dtd">
<svg width="765.0mm" height="235.0mm" viewBox="0 0 765.0 235.0" xmlns="http://www.w3.org/2000/svg" version="1.1">
<g id="Sketch" transform="translate(386.346753,111.855277) scale(1,-1)">
<path id="Sketch_w0000"  d="M 171.108964868 92.355369352 L 171.109241906 101.355184653 A 3 3 0 0 1 168.109 104.355L -363.846752624 104.355277003 A 15 15 0 0 1 -378.847 89.3553L -378.846752624 -100.644722997 A 15 15 0 0 1 -363.847 -115.645L 361.153247376 -115.644722997 A 10 10 0 0 1 371.153 -105.645L 371.153247376 91.3551846534 A 10 10 0 0 1 361.153 101.355L 324.108964868 101.355184653 A 3 3 0 0 1 321.109 98.3552L 321.108964868 92.3552770027 M 321.108964868 92.3552770027 L 318.108964868 89.3552770027 L 174.108964868 89.3552770027 M 174.108964868 89.3552770027 L 171.108964868 92.355369352 " stroke="#2c7dff" stroke-width="0.35 px" style="stroke-width:0.35;stroke-miterlimit:4;stroke-dasharray:none;fill:none;fill-rule: evenodd "/>
<circle cx="-3.84675262356" cy="64.3552770027" r="12.0" stroke="#2c7dff" stroke-width="0.35 px" style="stroke-width:0.35;stroke-miterlimit:4;stroke-dasharray:none;fill:none"/>
<circle cx="-3.84675262356" cy="-65.6447229973" r="12.0" stroke="#2c7dff" stroke-width="0.35 px" style="stroke-width:0.35;stroke-miterlimit:4;stroke-dasharray:none;fill:none"/>
<circle cx="-3.84675262356" cy="-15.6447229973" r="12.0" stroke="#2c7dff" stroke-width="0.35 px" style="stroke-width:0.35;stroke-miterlimit:4;stroke-dasharray:none;fill:none"/>
<circle cx="-328.846752624" cy="-75.6447229973" r="12.0" stroke="#2c7dff" stroke-width="0.35 px" style="stroke-width:0.35;stroke-miterlimit:4;stroke-dasharray:none;fill:none"/>
<circle cx="-278.846752624" cy="-75.6447229973" r="12.0" stroke="#2c7dff" stroke-width="0.35 px" style="stroke-width:0.35;stroke-miterlimit:4;stroke-dasharray:none;fill:none"/>
<circle cx="271.153247376" cy="-75.6447229973" r="12.0" stroke="#2c7dff" stroke-width="0.35 px" style="stroke-width:0.35;stroke-miterlimit:4;stroke-dasharray:none;fill:none"/>
<circle cx="321.153247376" cy="-75.6447229973" r="12.0" stroke="#2c7dff" stroke-width="0.35 px" style="stroke-width:0.35;stroke-miterlimit:4;stroke-dasharray:none;fill:none"/>
<title>Sketch</title>
</g>
</svg>